<svg width="101" height="19" viewBox="0 0 101 19" fill="none" xmlns="http://www.w3.org/2000/svg">
<path d="M9.36 0.959999C4.32 0.959999 0.792 4.512 0.792 9.552C0.792 14.592 4.344 18.12 9.384 18.12C13.824 18.12 16.632 15.216 17.496 12.312V8.496H8.568V11.52H13.776C13.152 13.416 11.736 14.496 9.696 14.496C6.744 14.496 4.968 12.672 4.968 9.552C4.968 6.624 6.72 4.752 9.36 4.752C10.896 4.752 12.048 5.352 12.672 6.48H17.208C16.32 3.024 13.392 0.959999 9.36 0.959999ZM32.8733 11.304C32.8733 7.056 29.8493 4.416 25.9133 4.416C22.0013 4.416 18.9533 7.056 18.9533 11.304C18.9533 15.552 21.9293 18.192 25.8653 18.192C29.8013 18.192 32.8733 15.552 32.8733 11.304ZM23.1293 11.304C23.1293 9.024 24.4253 7.968 25.9133 7.968C27.3533 7.968 28.6973 9.024 28.6973 11.304C28.6973 13.56 27.3293 14.64 25.8653 14.64C24.3773 14.64 23.1293 13.56 23.1293 11.304ZM49.4244 12.864C49.4244 14.064 48.6324 14.688 47.2644 14.688H44.2404V10.968H47.2164C48.5844 10.968 49.4244 11.664 49.4244 12.864ZM49.0164 6.216C49.0164 7.368 48.2724 7.968 46.9284 7.968H44.2404V4.44H46.9284C48.2724 4.44 49.0164 5.064 49.0164 6.216ZM53.5764 13.416C53.5764 11.496 52.3044 9.768 50.3364 9.36C51.9684 8.88 53.1924 7.56 53.1924 5.52C53.1924 2.856 51.1524 1.152 47.7204 1.152H40.1364V18H47.9844C51.5364 18 53.5764 16.2 53.5764 13.416ZM55.1408 11.28C55.1408 15.504 57.7568 18.192 61.0208 18.192C63.0128 18.192 64.4288 17.28 65.1728 16.104V18H69.2768V4.608H65.1728V6.504C64.4528 5.328 63.0368 4.416 61.0448 4.416C57.7568 4.416 55.1408 7.056 55.1408 11.28ZM65.1728 11.304C65.1728 13.44 63.8048 14.616 62.2448 14.616C60.7088 14.616 59.3168 13.416 59.3168 11.28C59.3168 9.144 60.7088 7.992 62.2448 7.992C63.8048 7.992 65.1728 9.168 65.1728 11.304ZM71.4298 11.304C71.4298 15.552 74.2138 18.192 78.1498 18.192C81.5098 18.192 83.8858 16.248 84.5818 13.152H80.2138C79.8538 14.136 79.2058 14.688 78.0778 14.688C76.6138 14.688 75.6058 13.536 75.6058 11.304C75.6058 9.072 76.6138 7.92 78.0778 7.92C79.2058 7.92 79.8778 8.52 80.2138 9.456H84.5818C83.8858 6.264 81.5098 4.416 78.1498 4.416C74.2138 4.416 71.4298 7.08 71.4298 11.304ZM86.7771 18H90.8811V12.384L94.9611 18H100.049L94.4331 11.328L100.001 4.608H94.9371L90.8811 10.056V0.24H86.7771V18Z" fill="#055844"/>
</svg>
